<?xml version="1.0" standalone="no"?>
<!DOCTYPE svg PUBLIC "-//W3C//DTD SVG 20010904//EN"
 "http://www.w3.org/TR/2001/REC-SVG-20010904/DTD/svg10.dtd">
<svg version="1.0" xmlns="http://www.w3.org/2000/svg"
 width="640.000000pt" height="274.000000pt" viewBox="0 0 640.000000 274.000000"
 preserveAspectRatio="xMidYMid meet">
<metadata>
Created by potrace 1.15, written by Peter Selinger 2001-2017
</metadata>
<g transform="translate(0.000000,274.000000) scale(0.100000,-0.100000)"
fill="#000000" stroke="none">
<path d="M1384 2269 c-3 -5 -20 -9 -39 -9 -55 0 -65 -8 -65 -51 0 -22 -7 -51
-16 -64 -9 -14 -14 -31 -11 -39 4 -10 1 -13 -9 -9 -7 3 -14 10 -14 17 0 11
-84 56 -104 56 -25 0 -86 -36 -97 -57 -7 -12 -27 -32 -46 -43 -18 -10 -33 -26
-33 -34 0 -8 -11 -28 -25 -44 -14 -17 -25 -35 -25 -40 0 -6 15 -28 34 -49 19
-21 48 -53 64 -72 l29 -34 21 21 c19 19 22 20 22 5 0 -10 -7 -31 -16 -48 -21
-38 -28 -94 -20 -150 8 -51 81 -158 89 -128 4 17 4 17 12 -1 5 -12 5 -21 -1
-23 -7 -2 -7 -28 0 -76 12 -87 9 -222 -5 -248 -5 -11 -16 -19 -24 -19 -33 0
-12 -15 24 -18 26 -1 43 3 52 14 12 15 11 16 -9 10 -21 -7 -22 -5 -22 42 0 27
7 69 15 92 17 49 19 99 4 120 -8 11 -9 7 -4 -17 3 -17 2 -34 -3 -37 -10 -6
-22 47 -22 97 0 28 14 37 23 15 4 -9 6 -9 6 -2 1 11 68 84 77 84 2 0 7 -18 10
-41 4 -26 10 -36 15 -28 14 22 60 22 84 -1 16 -15 24 -18 27 -9 3 8 11 10 22
6 14 -6 16 -14 11 -39 -4 -23 -3 -29 3 -19 6 8 24 14 41 13 32 -1 38 7 20 25
-7 7 -3 11 15 11 19 0 26 -6 29 -27 4 -24 4 -23 6 5 2 43 71 90 71 49 0 -8 7
-15 15 -15 18 0 19 -26 5 -119 -11 -80 -35 -112 -27 -36 l6 50 -16 -35 c-14
-32 -14 -40 2 -88 9 -29 13 -61 10 -72 -4 -13 1 -30 14 -46 34 -43 28 -52 -34
-51 -51 1 -55 3 -55 25 0 13 -4 20 -10 17 -5 -3 -10 1 -10 9 0 20 17 30 23 14
3 -7 6 2 6 21 l1 34 -21 -24 c-16 -19 -19 -32 -15 -61 l6 -38 -40 0 c-38 0
-40 2 -40 30 0 17 -4 30 -9 30 -5 0 -11 9 -14 20 -8 29 -25 25 -19 -5 2 -14 8
-25 12 -25 4 0 10 -10 13 -22 4 -15 0 -26 -16 -37 -36 -26 -57 -32 -57 -16 0
9 10 15 25 15 29 0 32 16 8 45 -15 20 -15 20 -11 -1 6 -24 -26 -52 -36 -31 -3
7 -3 2 -1 -10 3 -12 1 -24 -5 -28 -5 -3 -10 -1 -10 5 0 6 -5 8 -11 5 -7 -5 -5
-13 5 -24 12 -13 13 -25 5 -61 -6 -25 -15 -53 -20 -63 -5 -10 -5 -17 0 -17 5
0 14 -14 20 -30 6 -17 19 -43 31 -57 16 -21 18 -29 8 -41 -11 -13 -10 -14 9
-8 12 4 24 2 27 -3 4 -6 46 -9 102 -7 52 1 97 -1 100 -5 2 -4 1 -14 -2 -23 -5
-14 -7 -14 -22 0 -14 14 -17 14 -26 1 -14 -18 -129 -20 -123 -2 3 6 -9 11 -29
12 -19 0 -34 -4 -34 -9 0 -5 4 -7 9 -4 5 3 9 -6 9 -19 0 -35 -15 -31 -23 5 -6
28 -18 35 -52 31 -15 -2 -17 15 -3 24 5 3 10 14 10 23 0 10 -7 3 -16 -15 -9
-18 -22 -33 -29 -33 -25 0 -44 12 -39 24 2 6 -4 12 -16 13 -11 1 -20 -4 -20
-13 0 -8 -5 -14 -11 -14 -6 0 -8 7 -5 16 5 13 3 14 -6 7 -18 -14 -58 -23 -58
-13 0 5 6 11 13 13 7 3 5 6 -5 6 -10 1 -18 -3 -18 -9 0 -5 -5 -10 -11 -10 -5
0 -7 5 -4 10 11 18 -5 32 -21 19 -21 -18 -25 -9 -30 78 -7 108 -13 145 -25
138 -5 -4 -9 -21 -9 -39 0 -17 -5 -37 -12 -44 -8 -8 -9 -18 -1 -34 6 -13 17
-45 23 -71 14 -51 25 -61 82 -72 26 -5 35 -11 32 -23 -10 -42 7 -46 198 -54
101 -4 246 -5 323 -2 149 7 175 15 175 59 0 20 -4 22 -45 18 -26 -3 -45 -1
-45 5 0 6 26 9 63 8 111 -4 137 25 129 149 -3 56 -2 76 6 71 17 -10 3 23 -25
62 -13 17 -31 32 -39 32 -8 0 -13 3 -10 8 2 4 -3 16 -11 27 -15 20 -15 20 -8
-2 9 -32 -7 -28 -28 6 -16 28 -16 29 5 34 31 9 18 17 -32 21 l-43 4 23 -18
c21 -16 23 -21 12 -44 -7 -15 -17 -23 -25 -20 -15 6 -47 66 -54 103 -2 13 -12
38 -21 55 -13 25 -17 57 -17 157 l0 126 22 -14 c11 -8 23 -10 25 -6 3 4 3 2 1
-5 -1 -8 4 -20 12 -28 8 -9 15 -34 15 -57 0 -31 3 -38 10 -27 6 8 7 27 4 43
-3 15 -1 27 5 27 16 0 22 -60 13 -118 -6 -34 -6 -50 0 -44 6 6 13 45 17 88 6
62 14 91 39 134 18 30 35 62 38 70 3 8 11 26 17 39 21 42 15 152 -11 194 -25
43 -26 47 -13 47 5 0 13 -9 16 -20 9 -29 36 -24 64 13 14 18 19 27 11 20 -10
-9 -20 -6 -46 14 -19 14 -34 20 -34 14 0 -6 11 -16 25 -21 24 -9 36 -40 16
-40 -17 0 -61 47 -61 64 0 16 -2 15 -25 -1 -13 -10 -25 -25 -25 -32 0 -11 -3
-12 -11 -4 -16 16 39 83 68 83 12 0 25 5 28 10 3 6 -1 10 -9 10 -10 0 -16 9
-16 25 0 20 5 25 28 26 24 2 24 2 4 6 -30 6 -38 28 -17 49 14 15 21 15 56 4
22 -8 44 -21 49 -29 8 -14 9 -14 10 0 0 21 -17 35 -52 44 -15 4 -30 15 -33 26
-9 27 -54 59 -83 59 -14 0 -35 -9 -47 -20 -12 -11 -35 -24 -52 -29 -27 -8 -31
-6 -45 23 -9 17 -19 46 -22 65 -8 43 -22 61 -51 61 -12 0 -24 3 -28 6 -10 11
-156 13 -163 3z m116 -22 c0 -5 7 -4 16 4 9 7 18 9 22 3 4 -5 18 -9 32 -9 14
0 25 -4 26 -10 0 -5 6 -23 12 -38 7 -16 9 -33 6 -38 -3 -6 0 -18 8 -27 20 -23
22 -116 4 -151 -8 -15 -13 -37 -10 -47 3 -12 -4 -31 -19 -48 l-24 -28 -7 27
c-5 21 -2 32 13 47 20 17 29 48 15 48 -15 0 -64 -36 -64 -47 0 -15 1 -15 -66
-19 -41 -2 -55 2 -75 20 -28 25 -59 40 -59 27 0 -21 13 -41 27 -41 9 0 13 -6
10 -15 -7 -16 6 -27 37 -30 11 -1 26 -3 32 -4 7 0 14 -10 17 -21 7 -26 -27
-28 -42 -2 -10 16 -10 16 -11 0 0 -25 -15 -22 -34 7 -9 13 -22 22 -29 20 -6
-2 -22 12 -34 31 l-23 35 22 -7 c19 -6 18 -3 -7 20 -29 25 -30 26 -11 41 11 8
29 12 39 9 13 -4 17 -2 12 5 -4 7 -1 18 5 26 9 11 7 20 -10 42 l-23 28 7 -34
c6 -36 -6 -61 -31 -61 -10 0 -12 6 -8 20 7 22 -18 29 -31 8 -4 -7 -3 -8 4 -4
8 5 12 -3 12 -26 0 -22 -3 -28 -9 -20 -7 11 -9 11 -14 -2 -9 -23 -67 31 -67
63 0 13 -3 21 -7 18 -3 -4 -6 -23 -5 -43 1 -30 -1 -35 -16 -29 -14 5 -15 4 -4
-6 12 -13 17 -49 7 -49 -3 0 -16 10 -28 21 -16 15 -18 23 -9 26 9 4 10 9 2 18
-8 9 -6 14 5 19 8 3 15 13 15 23 -1 17 -1 17 -11 1 -14 -24 -28 -23 -22 2 4
14 -1 22 -20 29 -14 5 -28 14 -31 19 -7 12 30 46 43 38 5 -4 12 -2 16 4 13 21
46 10 59 -20 12 -29 30 -33 19 -4 -6 17 13 19 24 1 15 -24 61 -48 66 -34 3 7
9 1 15 -13 6 -14 11 -19 11 -11 1 8 -6 23 -16 33 -13 15 -14 23 -5 44 7 14 17
22 22 19 12 -8 12 -7 1 32 -12 41 1 53 65 59 26 2 49 5 50 7 7 7 84 2 84 -6z
m320 -117 c11 -11 25 -20 30 -20 21 0 9 -31 -15 -40 -14 -5 -25 -13 -25 -18 0
-5 -12 -14 -26 -21 -15 -6 -24 -14 -21 -17 3 -3 15 0 27 6 26 14 43 3 17 -11
-21 -12 -23 -31 -2 -23 8 4 15 2 15 -3 0 -16 -31 -53 -45 -53 -9 0 -12 -6 -8
-16 4 -12 2 -15 -8 -12 -8 3 -14 16 -14 29 0 19 5 23 23 22 22 -3 23 -3 5 21
-10 13 -22 22 -27 19 -4 -3 -12 1 -17 8 -6 10 -9 11 -9 2 0 -7 -9 -13 -20 -13
-11 0 -20 -5 -20 -11 0 -5 -4 -8 -9 -5 -5 3 -11 -1 -15 -9 -7 -19 3 -19 28 0
24 18 56 19 56 2 0 -13 -58 -40 -70 -32 -5 3 -10 -2 -14 -10 -3 -8 -1 -15 4
-15 14 0 12 -44 -2 -59 -11 -10 -9 -11 6 -5 17 6 18 4 12 -19 -5 -21 -3 -25 9
-21 13 6 14 3 4 -20 -13 -29 -29 -35 -29 -11 0 8 -4 23 -9 33 -25 51 -29 83
-15 134 7 29 18 54 24 56 8 3 8 8 0 17 -8 10 -8 15 1 20 8 6 7 10 -2 16 -11 8
-9 13 10 29 13 11 32 20 42 20 10 0 29 11 43 25 30 30 40 31 66 5z m-760 -59
c19 -16 22 -22 12 -34 -10 -11 -9 -17 4 -27 8 -8 13 -22 11 -32 -3 -10 -1 -18
4 -18 5 0 18 -9 30 -21 20 -20 21 -20 34 -2 8 10 15 28 15 41 l0 23 29 -20
c16 -12 36 -19 44 -15 9 3 16 -3 20 -15 5 -22 -7 -29 -19 -10 -4 8 -9 7 -15
-2 -6 -11 -11 -11 -21 -1 -17 17 -33 15 -18 -3 7 -8 21 -15 30 -15 51 0 64
-34 35 -90 -19 -37 -20 -41 -4 -51 8 -4 20 -3 28 4 11 10 13 9 9 -3 -2 -8 -16
-15 -29 -15 -28 0 -37 -16 -38 -63 -1 -46 -17 -72 -44 -71 -17 1 -18 2 -4 6
13 3 16 10 11 26 -6 19 -5 20 9 9 13 -11 14 -9 7 23 -4 20 -4 35 1 35 5 0 9 7
9 15 0 8 -4 15 -8 15 -15 0 -30 -22 -25 -36 3 -8 0 -21 -7 -29 -6 -8 -9 -19
-6 -24 4 -5 2 -12 -4 -16 -5 -3 -7 -17 -4 -31 4 -14 2 -24 -5 -24 -6 0 -11 6
-11 13 0 7 -9 18 -20 25 -12 7 -18 17 -14 23 4 7 11 6 20 -2 11 -9 14 -8 14 4
0 9 -4 19 -10 22 -15 9 -12 25 5 25 17 0 20 16 5 25 -16 10 -12 25 7 25 13 0
14 3 5 12 -19 19 -14 38 10 38 17 0 19 3 10 12 -9 9 -15 9 -24 0 -17 -17 -31
-15 -25 2 3 8 -3 26 -14 39 -10 14 -19 28 -19 31 0 11 28 6 33 -6 4 -10 6 -10
6 -1 1 7 -9 24 -22 38 l-22 27 -1 -41 c-1 -31 -8 -46 -30 -65 -33 -29 -44 -32
-44 -11 0 8 -9 19 -20 25 -11 6 -20 20 -20 30 0 23 15 27 24 5 3 -8 12 -12 20
-9 14 5 16 20 4 39 -9 15 14 34 45 36 17 1 -24 17 -45 18 -11 1 -15 -4 -12
-13 3 -8 0 -17 -6 -21 -8 -5 -8 -10 0 -20 16 -20 -43 -14 -63 7 -21 21 -21 24
3 55 11 14 20 34 20 45 0 12 11 23 30 29 17 6 30 15 30 20 0 14 12 10 40 -10z
m445 -331 c15 -16 31 -27 35 -25 4 2 17 -7 29 -21 16 -19 20 -29 12 -37 -7 -7
-7 -14 0 -24 8 -9 8 -17 0 -27 -6 -7 -8 -22 -5 -32 6 -16 3 -15 -19 5 -15 14
-29 22 -33 19 -3 -3 -22 9 -42 28 -27 25 -39 30 -49 22 -7 -6 -13 -17 -13 -24
0 -8 -4 -14 -10 -14 -14 0 -13 20 3 53 6 15 20 27 30 27 9 0 17 5 17 11 0 6 9
8 23 4 21 -7 21 -6 5 11 -16 16 -20 16 -44 4 -14 -8 -30 -24 -34 -35 -7 -18
-9 -18 -15 -3 -10 25 36 78 76 87 3 0 18 -12 34 -29z m280 -691 c-5 -14 -1
-19 14 -19 12 0 21 -4 21 -8 0 -5 -28 -8 -62 -6 -35 1 -63 3 -63 4 0 6 -77 4
-81 -2 -5 -8 0 -10 54 -12 19 -1 38 -9 43 -17 7 -12 9 -11 9 3 0 16 3 16 43
-1 39 -17 42 -21 42 -57 1 -21 7 -51 14 -65 11 -22 10 -32 -11 -74 -19 -40
-28 -50 -51 -52 -21 -1 -27 3 -28 20 -2 22 -2 22 -6 0 -2 -13 -9 -23 -15 -23
-6 0 -8 10 -4 24 9 35 -6 40 -20 6 -12 -28 -16 -30 -70 -30 l-56 0 31 35 c17
20 33 48 37 63 11 52 17 58 23 27 4 -16 9 -25 12 -20 3 6 0 30 -7 55 -6 25
-13 41 -13 35 -3 -15 -40 58 -41 78 0 10 -4 16 -9 13 -12 -8 -42 4 -36 13 5 9
36 8 53 -3 7 -4 12 -2 12 5 0 8 4 8 15 -1 11 -9 15 -9 15 -1 0 7 5 9 12 5 7
-4 30 -7 52 -7 23 0 45 -4 49 -11 5 -6 5 4 2 21 -6 28 -4 32 10 27 10 -4 13
-13 10 -25z m-249 -25 c21 -10 45 -34 61 -61 76 -131 -63 -281 -199 -214 -59
29 -81 63 -86 131 -2 42 2 62 17 88 43 67 132 91 207 56z"/>
<path d="M1413 2159 c9 -5 17 -15 17 -21 0 -9 -3 -9 -12 0 -14 14 -44 16 -52
4 -2 -4 7 -8 21 -7 14 0 28 -6 30 -12 3 -8 -6 -13 -24 -14 -15 0 -22 -3 -16
-6 9 -3 9 -10 -3 -28 -9 -14 -14 -30 -11 -37 2 -7 0 -23 -4 -35 -7 -18 -4 -25
13 -34 16 -9 22 -8 29 2 6 11 11 10 23 -6 15 -20 15 -20 10 1 -7 27 19 38 49
22 36 -19 57 -16 78 11 12 14 23 24 26 21 7 -7 33 72 26 83 -3 5 -11 -2 -17
-15 -7 -12 -20 -22 -30 -21 -10 0 -15 -4 -12 -12 2 -7 -1 -19 -7 -26 -7 -7 -3
-6 9 4 11 9 23 14 27 11 12 -12 -41 -44 -71 -44 -16 0 -35 7 -42 15 -11 13
-14 13 -24 1 -17 -23 -62 -31 -69 -12 -4 9 -2 16 3 16 5 0 7 11 4 25 -5 27 5
32 25 13 11 -11 11 -9 2 9 -13 26 -14 33 -2 33 5 0 11 -8 14 -18 7 -31 46 -34
73 -7 23 23 23 23 26 2 3 -20 4 -19 15 6 12 25 11 27 -12 27 -33 0 -39 16 -15
40 11 11 16 20 11 20 -20 0 -41 -32 -35 -55 6 -26 -6 -38 -31 -29 -11 5 -15
14 -11 27 7 27 -10 57 -32 57 -16 -1 -16 -1 1 -11z"/>
<path d="M2350 2102 c0 -5 15 -15 33 -23 31 -14 32 -16 35 -80 2 -36 -4 -121
-11 -189 -11 -96 -19 -127 -32 -135 -54 -33 -53 -34 38 -35 56 0 86 4 82 10
-3 6 -12 10 -19 10 -29 0 -46 36 -46 96 0 85 12 224 19 224 7 0 46 -82 107
-230 24 -58 49 -105 56 -105 6 0 24 29 38 65 15 36 52 115 81 175 l54 110 3
-130 c4 -165 -1 -192 -36 -208 -24 -10 -14 -12 78 -17 58 -4 109 -4 114 -2 5
3 -7 13 -27 23 l-35 19 -7 92 c-3 51 -5 138 -3 193 l3 100 32 15 c42 19 42 30
1 30 -68 0 -107 -12 -114 -34 -15 -50 -135 -286 -145 -286 -10 0 -149 278
-149 298 0 11 -57 22 -112 22 -21 0 -38 -4 -38 -8z"/>
<path d="M3015 2102 c-3 -3 9 -13 25 -23 l30 -19 -1 -142 c-1 -205 -7 -239
-44 -258 l-30 -15 58 -3 c31 -2 83 -2 115 0 54 3 56 4 29 15 -36 17 -48 52
-45 132 l3 66 123 3 122 3 0 -80 c0 -94 -5 -109 -38 -122 -46 -18 -8 -26 93
-20 97 6 99 6 70 21 l-30 15 -3 193 -2 192 31 19 c17 10 27 21 22 24 -4 2 -50
4 -101 4 -91 1 -124 -9 -80 -23 34 -10 38 -21 38 -105 l0 -76 -67 -6 c-100
-10 -171 -8 -178 3 -4 6 -3 47 1 91 6 78 8 81 35 91 16 5 27 13 24 18 -5 8
-191 10 -200 2z"/>
<path d="M3621 2101 c-10 -7 -7 -12 15 -22 28 -14 29 -17 35 -109 3 -52 3
-140 0 -195 -5 -91 -8 -100 -29 -111 -13 -6 -22 -14 -20 -18 3 -8 186 -14 193
-7 3 2 -9 12 -25 22 -30 19 -30 19 -30 110 0 88 1 90 22 87 16 -2 38 -28 74
-86 28 -46 63 -95 78 -110 l26 -27 223 0 c220 0 223 0 279 27 176 82 184 325
13 413 -52 27 -70 30 -159 33 -56 1 -128 -1 -161 -5 l-60 -9 30 -14 c26 -13
31 -23 38 -70 13 -85 2 -319 -16 -338 -23 -22 -91 -20 -117 3 -25 22 -88 113
-114 163 l-17 32 42 40 c40 37 41 42 36 85 -6 55 -35 91 -86 105 -44 12 -251
13 -270 1z m235 -45 c66 -66 36 -161 -54 -173 l-42 -6 0 101 c0 71 4 102 13
105 29 12 51 5 83 -27z m510 19 c109 -32 161 -153 123 -290 -30 -107 -187
-173 -228 -96 -7 12 -11 92 -11 200 0 161 2 181 18 190 23 14 40 13 98 -4z"/>
<path d="M1291 1403 c0 -18 -5 -33 -10 -33 -10 0 -3 -71 8 -80 8 -7 12 -100 6
-127 -3 -13 -13 -23 -21 -23 -11 0 -14 5 -10 16 3 9 9 41 12 72 5 56 5 57 -11
29 -9 -15 -13 -32 -10 -37 4 -6 3 -20 -1 -33 -7 -21 -7 -21 -14 -2 -6 16 -10
11 -20 -28 -7 -26 -16 -50 -21 -52 -4 -3 -6 -12 -2 -20 3 -9 -1 -15 -9 -15 -8
0 -23 -7 -34 -16 -10 -8 -13 -12 -5 -8 9 4 12 2 9 -7 -3 -9 -20 -14 -49 -14
-24 0 -50 -4 -56 -8 -17 -11 -16 5 2 29 9 12 14 14 15 6 0 -7 5 -10 11 -6 8 4
7 9 -2 15 -7 4 -17 5 -21 3 -4 -3 -8 -1 -8 5 0 5 5 13 10 16 6 3 10 11 10 17
0 6 -9 3 -21 -8 -12 -11 -18 -26 -15 -38 3 -13 -4 -27 -22 -43 -15 -13 -21
-23 -14 -23 6 0 12 -8 12 -17 0 -15 2 -16 10 -3 8 12 12 9 22 -18 l12 -32 11
42 c12 51 43 63 69 26 l16 -22 0 22 c0 19 5 22 39 22 30 0 40 4 44 20 3 11 11
20 17 20 7 0 10 -7 6 -15 -3 -8 -1 -15 4 -15 9 0 10 6 10 38 0 4 -8 7 -17 7
-21 0 -43 36 -25 42 6 3 12 11 12 19 0 9 5 12 11 9 6 -4 8 -13 5 -20 -3 -8 4
-17 15 -20 10 -4 19 -14 20 -23 0 -14 2 -13 8 3 10 25 4 38 -15 31 -8 -3 -14
1 -14 10 0 9 6 14 13 11 8 -3 20 -1 28 4 8 5 10 9 4 9 -6 0 -9 34 -7 87 2 49
-1 115 -6 148 -6 39 -10 49 -11 28z"/>
<path d="M2350 1305 c0 -80 1 -85 21 -85 20 0 21 4 17 50 -6 58 2 63 30 19
l19 -31 19 31 c10 17 22 31 26 31 4 0 8 -22 8 -50 0 -38 4 -50 15 -50 12 0 15
16 15 85 0 78 -2 85 -20 85 -11 0 -26 -12 -35 -29 -22 -44 -31 -45 -54 -6 -13
22 -28 35 -41 35 -19 0 -20 -6 -20 -85z"/>
<path d="M3780 1305 c0 -79 1 -85 21 -85 17 0 20 5 17 33 -3 31 -1 32 35 35
36 3 37 3 37 -32 0 -29 4 -36 20 -36 18 0 20 7 20 85 0 78 -2 85 -20 85 -16 0
-20 -7 -20 -36 0 -35 -1 -35 -37 -32 -36 3 -38 5 -35 36 3 27 0 32 -17 32 -20
0 -21 -6 -21 -85z"/>
<path d="M3450 1330 c-61 -61 36 -153 100 -95 25 23 26 76 2 98 -25 23 -78 21
-102 -3z"/>
<path d="M4125 1342 c-3 -3 -5 -32 -5 -64 0 -51 2 -58 19 -58 17 0 20 8 23 48
3 39 6 47 23 47 17 0 20 -8 23 -47 2 -34 7 -48 18 -48 10 0 14 12 14 38 0 45
13 67 34 59 11 -5 16 -19 16 -52 0 -38 3 -45 20 -45 17 0 20 7 20 46 0 78 -7
83 -110 81 -50 0 -92 -3 -95 -5z"/>
<path d="M2350 985 c0 -78 2 -85 20 -85 15 0 20 7 20 25 0 15 6 25 15 25 8 0
22 -11 31 -25 9 -14 25 -25 35 -25 23 0 23 4 4 34 -14 21 -14 24 0 36 8 7 15
27 15 46 0 41 -21 54 -89 54 l-51 0 0 -85z"/>
<path d="M3620 985 l0 -85 49 0 c67 0 103 29 103 85 0 56 -36 85 -103 85 l-49
0 0 -85z"/>
<path d="M2821 1004 c-26 -33 -26 -55 -3 -82 33 -39 107 -29 119 16 4 15 6 34
4 42 -10 54 -85 68 -120 24z"/>
<path d="M4360 1010 c-43 -43 -11 -114 51 -112 91 2 90 132 -1 132 -17 0 -39
-9 -50 -20z"/>
<path d="M4510 944 c0 -77 2 -84 20 -84 14 0 20 7 20 23 0 21 4 23 30 19 41
-6 70 21 70 63 0 45 -25 63 -87 63 l-53 0 0 -84z"/>
<path d="M4680 963 c0 -56 2 -63 20 -63 17 0 20 7 20 45 0 33 5 47 16 52 21 8
34 -14 34 -59 0 -26 4 -38 14 -38 11 0 16 14 18 48 3 39 6 47 23 47 17 0 20
-8 23 -47 3 -40 6 -48 23 -48 16 0 19 7 19 39 0 22 -4 51 -9 64 -9 24 -13 25
-105 24 l-96 0 0 -64z"/>
<path d="M4690 730 c0 -27 -2 -29 -29 -24 -16 3 -38 1 -49 -5 -29 -15 -38 -66
-18 -96 14 -21 23 -24 71 -23 l55 2 0 88 c0 72 -3 88 -15 88 -10 0 -15 -10
-15 -30z"/>
<path d="M2366 719 c-30 -35 -32 -58 -11 -98 20 -39 65 -54 113 -38 34 11 37
15 37 52 0 39 -1 40 -34 40 -19 0 -36 -6 -38 -12 -3 -8 4 -13 16 -13 14 0 21
-6 21 -20 0 -15 -7 -20 -29 -20 -56 0 -81 58 -41 95 14 13 28 16 54 11 22 -4
37 -2 42 5 10 17 -16 29 -63 29 -34 0 -46 -5 -67 -31z"/>
<path d="M2562 694 c-29 -20 -30 -74 -2 -99 29 -26 79 -24 102 4 53 67 -29
145 -100 95z"/>
<path d="M3280 643 c0 -49 3 -63 15 -63 11 0 15 11 15 38 0 45 13 67 34 59 11
-5 16 -19 16 -52 0 -38 3 -45 20 -45 17 0 20 7 20 45 0 33 5 47 16 52 21 8 34
-14 34 -59 0 -27 4 -38 15 -38 19 0 21 100 3 118 -15 15 -55 16 -63 2 -4 -7
-11 -8 -18 -1 -7 5 -33 9 -59 9 l-48 -1 0 -64z"/>
<path d="M4021 684 c-26 -33 -26 -55 -3 -82 33 -39 107 -29 119 16 4 15 6 34
4 42 -10 54 -85 68 -120 24z"/>
<path d="M1044 517 c17 -13 17 -14 1 -31 -16 -16 -17 -19 -2 -33 15 -15 17
-13 23 25 5 31 11 42 25 42 28 0 34 -22 11 -41 l-21 -17 20 -5 c12 -3 19 -10
16 -14 -3 -5 -2 -15 4 -23 6 -10 9 4 9 43 l0 58 73 -3 c69 -3 72 -4 72 -28 0
-17 -7 -26 -25 -30 -17 -4 -21 -8 -12 -14 6 -4 17 -4 22 -1 6 3 14 -4 19 -17
8 -19 10 -13 10 29 1 53 14 74 34 54 9 -9 9 -16 0 -30 -10 -15 -9 -22 2 -31 9
-7 15 -8 20 0 11 18 31 11 42 -17 10 -25 11 -22 12 30 l1 58 38 -3 c32 -3 37
-7 40 -29 2 -17 -3 -29 -13 -33 -27 -10 -41 5 -20 21 16 11 17 13 3 13 -9 0
-20 -5 -23 -10 -9 -15 14 -40 35 -40 10 0 21 -8 23 -17 3 -10 5 5 6 32 0 28 6
56 13 63 9 9 -42 12 -232 12 -204 0 -241 -2 -226 -13z"/>
</g>
</svg>
